M48
; DRILL file {KiCad (6.0.7)} date Tue Feb 27 11:31:55 2024
; FORMAT={-:-/ absolute / inch / decimal}
; #@! TF.CreationDate,2024-02-27T11:31:55-06:00
; #@! TF.GenerationSoftware,Kicad,Pcbnew,(6.0.7)
; #@! TF.FileFunction,Plated,1,2,PTH
FMAT,2
INCH
; #@! TA.AperFunction,Plated,PTH,ViaDrill
T1C0.0157
; #@! TA.AperFunction,Plated,PTH,ComponentDrill
T2C0.0157
; #@! TA.AperFunction,Plated,PTH,ComponentDrill
T3C0.0236
; #@! TA.AperFunction,Plated,PTH,ComponentDrill
T4C0.0299
; #@! TA.AperFunction,Plated,PTH,ComponentDrill
T5C0.0315
; #@! TA.AperFunction,Plated,PTH,ComponentDrill
T6C0.0350
; #@! TA.AperFunction,Plated,PTH,ComponentDrill
T7C0.0394
; #@! TA.AperFunction,Plated,PTH,ComponentDrill
T8C0.0433
; #@! TA.AperFunction,Plated,PTH,ComponentDrill
T9C0.0472
; #@! TA.AperFunction,Plated,PTH,ComponentDrill
T10C0.0550
; #@! TA.AperFunction,Plated,PTH,ComponentDrill
T11C0.0551
; #@! TA.AperFunction,Plated,PTH,ComponentDrill
T12C0.0600
; #@! TA.AperFunction,Plated,PTH,ComponentDrill
T13C0.1040
%
G90
G05
T1
X7.4488Y-7.9646
X7.5354Y-7.9646
X7.7165Y-7.9921
X7.7165Y-8.0315
X7.7953Y-7.9921
X7.7953Y-8.0315
X7.9528Y-8.189
X8.0315Y-8.1102
X8.0315Y-8.189
X8.0512Y-7.189
X8.0512Y-7.2992
X8.1713Y-7.9134
X8.1875Y-8.3086
X8.2687Y-6.626
X8.4646Y-7.2205
X8.6654Y-8.3898
X8.6762Y-6.626
X8.6772Y-7.2992
X8.6929Y-8.5354
X8.7195Y-6.7805
X8.8819Y-7.1417
X8.8819Y-7.2362
X8.8976Y-6.9685
X8.9409Y-7.5512
X8.9665Y-7.7746
X8.9665Y-7.8346
X8.984Y-6.4055
X9.063Y-8.3898
X9.126Y-7.6585
X9.248Y-8.315
X9.4075Y-7.7746
X9.4075Y-7.8346
X9.5118Y-8.2598
X9.6063Y-8.2598
X9.7638Y-8.2283
X9.8031Y-8.2283
X9.8031Y-8.5354
X9.8425Y-8.2283
X9.8504Y-7.2362
X9.8543Y-7.3346
X10.0Y-8.2598
X10.0482Y-6.6545
X10.2126Y-7.2165
X10.3583Y-9.0394
X10.3622Y-7.2126
X10.4252Y-7.315
X10.4498Y-6.6555
X10.4764Y-6.7844
X10.6083Y-6.9665
X10.6575Y-7.1496
X10.6575Y-7.2402
X10.6919Y-7.6132
X10.7756Y-8.9646
X10.7776Y-6.376
X10.8819Y-7.8256
X10.9055Y-8.2106
X10.9449Y-8.6614
X11.0079Y-9.0866
X11.0236Y-8.5827
X11.065Y-8.0709
X11.0854Y-8.2325
X11.1919Y-7.8593
X11.1963Y-8.2321
X11.2185Y-8.3652
X11.2407Y-8.2421
X11.2963Y-8.7382
X11.3307Y-8.8268
X11.3927Y-8.7018
X11.4144Y-7.7921
X11.4252Y-8.9055
X11.4656Y-7.9705
X11.4803Y-8.1634
X11.4803Y-8.7224
X11.4813Y-7.9104
X11.4921Y-8.4675
X11.4951Y-8.3778
X11.5344Y-8.3975
X11.5413Y-8.814
X11.5561Y-8.5709
X11.561Y-8.7126
X11.5738Y-9.0827
X11.5807Y-8.2795
X11.5945Y-9.252
X11.687Y-6.6329
X11.7028Y-8.1063
X11.7057Y-8.2923
X11.7165Y-7.1614
X11.7165Y-7.252
X11.747Y-8.4409
X11.7835Y-8.5413
X11.8051Y-7.5925
X11.814Y-7.6309
X11.8425Y-9.3031
X12.0906Y-7.2165
X12.1516Y-6.6762
X12.2146Y-7.8031
X12.2953Y-7.252
X12.3465Y-6.7795
X12.3691Y-8.5421
X12.4291Y-6.9764
X12.5Y-7.0709
X12.5039Y-7.1654
X12.5453Y-6.3976
X12.5472Y-7.5295
X13.5118Y-7.2756
X13.5118Y-7.3622
X13.6024Y-6.6388
X13.9094Y-7.2283
X14.1299Y-7.2756
X14.1319Y-6.69
X14.1654Y-6.7795
X14.311Y-6.9843
X14.313Y-6.3819
X14.3504Y-7.2441
X14.3543Y-7.1575
X14.3701Y-7.6772
T2
X11.1811Y-9.1043
X11.1811Y-9.1575
X11.2146Y-9.1043
X11.2146Y-9.1575
X11.248Y-9.1043
X11.248Y-9.1575
X11.2815Y-9.1043
X11.2815Y-9.1575
X11.315Y-9.1043
X11.315Y-9.1575
X11.3484Y-9.1043
X11.3484Y-9.1575
X11.3819Y-9.1043
X11.3819Y-9.1575
X11.4154Y-9.1043
X11.4154Y-9.1575
T4
X12.8429Y-8.1211
X12.8429Y-8.2211
X12.8429Y-8.3211
X12.8429Y-8.4211
X12.9429Y-8.1711
X12.9429Y-8.2711
X12.9429Y-8.3711
X12.9429Y-8.4711
T5
X7.9606Y-6.7323
X7.9606Y-6.9291
X8.9212Y-6.811
X9.118Y-6.811
X9.8031Y-6.7164
X9.8031Y-6.9133
X10.7874Y-6.6929
X10.7874Y-6.8898
X11.6102Y-6.746
X11.6102Y-6.9428
X12.5235Y-6.6988
X12.7204Y-6.6988
X13.4705Y-6.7558
X13.4705Y-6.9527
X14.3995Y-6.8504
X14.5964Y-6.8504
T6
X10.3353Y-8.3577
X10.3353Y-8.5147
X10.3353Y-8.6717
T7
X12.0496Y-8.7953
X12.0496Y-8.8953
X12.0496Y-8.9953
X12.0496Y-9.0953
X12.0496Y-9.1953
X12.1496Y-8.7953
X12.1496Y-8.8953
X12.1496Y-8.9953
X12.1496Y-9.0953
X12.1496Y-9.1953
T8
X8.0472Y-6.2402
X8.1472Y-6.2402
X8.2472Y-6.2402
X8.7248Y-6.24
X8.8248Y-6.24
X8.9248Y-6.24
X9.7681Y-6.2124
X9.8681Y-6.2124
X9.9681Y-6.2124
X10.5358Y-6.2242
X10.6358Y-6.2242
X10.7358Y-6.2242
X11.4724Y-6.2146
X11.5724Y-6.2146
X11.6724Y-6.2146
X12.3291Y-6.2124
X12.4291Y-6.2124
X12.5291Y-6.2124
X13.1343Y-6.2124
X13.2343Y-6.2124
X13.3343Y-6.2124
X13.9882Y-6.2028
X14.0882Y-6.2028
X14.1882Y-6.2028
T9
X9.4055Y-5.2879
X9.4055Y-5.5832
X12.874Y-5.2466
X12.874Y-5.5418
T10
X10.1703Y-8.8097
X10.4143Y-8.2197
T11
X10.613Y-5.304
X10.913Y-5.304
X11.213Y-5.304
X11.513Y-5.304
T12
X6.9501Y-7.5992
X6.9501Y-7.7843
X6.9501Y-7.9693
T13
X6.9146Y-5.5948
X6.9146Y-5.7999
X6.9146Y-6.005
X6.9213Y-6.5906
X6.9213Y-6.7957
X6.9213Y-7.0008
X7.3398Y-5.5948
X7.3398Y-5.7999
X7.3398Y-6.005
X7.3465Y-6.5906
X7.3465Y-6.7957
X7.3465Y-7.0008
T3
G00X11.128Y-9.1724
M15
G01X11.128Y-9.1134
M16
G05
G00X11.128Y-9.2917
M15
G01X11.128Y-9.2602
M16
G05
G00X11.4685Y-9.1724
M15
G01X11.4685Y-9.1134
M16
G05
G00X11.4685Y-9.2917
M15
G01X11.4685Y-9.2602
M16
G05
T0
M30
